<svg xmlns="http://www.w3.org/2000/svg" xmlns:xlink="http://www.w3.org/1999/xlink" width="100" zoomAndPan="magnify" viewBox="0 0 75 74.999997" height="100" preserveAspectRatio="xMidYMid meet" version="1.0"><defs><g/></defs><g fill="#0000ca" fill-opacity="1"><g transform="translate(1.911622, 58.80889)"><g><path d="M 24.28125 0 L 24.28125 -23.890625 C 24.28125 -26.378906 23.515625 -28.351562 21.984375 -29.8125 C 20.460938 -31.28125 18.375 -32.015625 15.71875 -32.015625 C 13.78125 -32.015625 12.171875 -31.625 10.890625 -30.84375 L 10.109375 -31.109375 C 12.296875 -32.265625 15.003906 -32.84375 18.234375 -32.84375 C 21.316406 -32.84375 24.0625 -32.316406 26.46875 -31.265625 C 28.875 -30.210938 30.753906 -28.796875 32.109375 -27.015625 C 33.460938 -25.234375 34.140625 -23.207031 34.140625 -20.9375 L 34.140625 0 Z M 9.140625 -20.609375 C 7.765625 -20.609375 6.625 -21.035156 5.71875 -21.890625 C 4.820312 -22.753906 4.375 -23.832031 4.375 -25.125 C 4.375 -26.40625 4.820312 -27.472656 5.71875 -28.328125 C 6.625 -29.191406 7.765625 -29.625 9.140625 -29.625 C 10.390625 -29.625 11.429688 -29.191406 12.265625 -28.328125 C 13.109375 -27.472656 13.53125 -26.40625 13.53125 -25.125 C 13.53125 -23.832031 13.109375 -22.753906 12.265625 -21.890625 C 11.429688 -21.035156 10.390625 -20.609375 9.140625 -20.609375 Z M 13.015625 0.640625 C 10.953125 0.640625 9.070312 0.242188 7.375 -0.546875 C 5.675781 -1.335938 4.332031 -2.421875 3.34375 -3.796875 C 2.363281 -5.171875 1.875 -6.71875 1.875 -8.4375 C 1.875 -10.238281 2.453125 -11.835938 3.609375 -13.234375 C 4.765625 -14.628906 6.351562 -15.734375 8.375 -16.546875 C 10.394531 -17.367188 12.691406 -17.78125 15.265625 -17.78125 C 16.460938 -17.78125 17.640625 -17.691406 18.796875 -17.515625 C 19.960938 -17.347656 21.019531 -17.113281 21.96875 -16.8125 L 21.96875 -15.96875 C 21.53125 -16.144531 21.050781 -16.265625 20.53125 -16.328125 C 20.019531 -16.390625 19.488281 -16.421875 18.9375 -16.421875 C 16.789062 -16.421875 15.09375 -15.773438 13.84375 -14.484375 C 12.601562 -13.203125 11.984375 -11.421875 11.984375 -9.140625 C 11.984375 -6.992188 12.507812 -5.253906 13.5625 -3.921875 C 14.613281 -2.597656 16 -1.9375 17.71875 -1.9375 C 19.300781 -1.9375 20.71875 -2.363281 21.96875 -3.21875 L 21.96875 -2.25 C 20.757812 -1.351562 19.367188 -0.644531 17.796875 -0.125 C 16.234375 0.382812 14.640625 0.640625 13.015625 0.640625 Z M 13.015625 0.640625 "/></g></g></g><g fill="#0000ca" fill-opacity="1"><g transform="translate(39.653696, 58.80889)"><g><path d="M 7.734375 0.328125 C 6.054688 0.328125 4.644531 -0.226562 3.5 -1.34375 C 2.363281 -2.46875 1.796875 -3.84375 1.796875 -5.46875 C 1.796875 -7.101562 2.363281 -8.5 3.5 -9.65625 C 4.644531 -10.820312 6.054688 -11.40625 7.734375 -11.40625 C 9.359375 -11.40625 10.726562 -10.820312 11.84375 -9.65625 C 12.96875 -8.5 13.53125 -7.101562 13.53125 -5.46875 C 13.53125 -3.84375 12.96875 -2.46875 11.84375 -1.34375 C 10.726562 -0.226562 9.359375 0.328125 7.734375 0.328125 Z M 7.734375 0.328125 "/></g></g></g><g fill="#0000ca" fill-opacity="1"><g transform="translate(54.982392, 58.80889)"><g><path d="M 4.125 0 L 4.125 -45.34375 L 13.96875 -47.015625 L 13.96875 0 Z M 4.125 0 "/></g></g></g></svg>