<svg xmlns="http://www.w3.org/2000/svg" xmlns:xlink="http://www.w3.org/1999/xlink" width="500" zoomAndPan="magnify" viewBox="0 0 375 74.999997" height="100" preserveAspectRatio="xMidYMid meet" version="1.0"><defs><g/></defs><g fill="#0000ca" fill-opacity="1"><g transform="translate(7.511424, 57.229266)"><g><path d="M 22.75 0 L 22.75 -22.375 C 22.75 -24.707031 22.03125 -26.554688 20.59375 -27.921875 C 19.164062 -29.296875 17.207031 -29.984375 14.71875 -29.984375 C 12.90625 -29.984375 11.398438 -29.617188 10.203125 -28.890625 L 9.46875 -29.140625 C 11.519531 -30.222656 14.054688 -30.765625 17.078125 -30.765625 C 19.972656 -30.765625 22.546875 -30.269531 24.796875 -29.28125 C 27.046875 -28.300781 28.800781 -26.972656 30.0625 -25.296875 C 31.332031 -23.628906 31.96875 -21.734375 31.96875 -19.609375 L 31.96875 0 Z M 8.5625 -19.3125 C 7.28125 -19.3125 6.21875 -19.710938 5.375 -20.515625 C 4.53125 -21.316406 4.109375 -22.320312 4.109375 -23.53125 C 4.109375 -24.738281 4.53125 -25.742188 5.375 -26.546875 C 6.21875 -27.347656 7.28125 -27.75 8.5625 -27.75 C 9.726562 -27.75 10.703125 -27.347656 11.484375 -26.546875 C 12.273438 -25.742188 12.671875 -24.738281 12.671875 -23.53125 C 12.671875 -22.320312 12.273438 -21.316406 11.484375 -20.515625 C 10.703125 -19.710938 9.726562 -19.3125 8.5625 -19.3125 Z M 12.1875 0.609375 C 10.257812 0.609375 8.5 0.238281 6.90625 -0.5 C 5.320312 -1.25 4.066406 -2.265625 3.140625 -3.546875 C 2.210938 -4.835938 1.75 -6.289062 1.75 -7.90625 C 1.75 -9.59375 2.289062 -11.085938 3.375 -12.390625 C 4.457031 -13.703125 5.941406 -14.738281 7.828125 -15.5 C 9.722656 -16.269531 11.878906 -16.65625 14.296875 -16.65625 C 15.421875 -16.65625 16.523438 -16.570312 17.609375 -16.40625 C 18.703125 -16.25 19.691406 -16.03125 20.578125 -15.75 L 20.578125 -14.96875 C 20.171875 -15.125 19.722656 -15.234375 19.234375 -15.296875 C 18.753906 -15.359375 18.253906 -15.390625 17.734375 -15.390625 C 15.722656 -15.390625 14.132812 -14.785156 12.96875 -13.578125 C 11.800781 -12.367188 11.21875 -10.695312 11.21875 -8.5625 C 11.21875 -6.550781 11.707031 -4.921875 12.6875 -3.671875 C 13.675781 -2.429688 14.976562 -1.8125 16.59375 -1.8125 C 18.082031 -1.8125 19.410156 -2.210938 20.578125 -3.015625 L 20.578125 -2.109375 C 19.441406 -1.265625 18.140625 -0.597656 16.671875 -0.109375 C 15.210938 0.367188 13.71875 0.609375 12.1875 0.609375 Z M 12.1875 0.609375 "/></g></g></g><g fill="#0000ca" fill-opacity="1"><g transform="translate(42.863663, 57.229266)"><g><path d="M 24.734375 0 L 24.734375 -23.21875 C 24.734375 -24.75 24.300781 -26.015625 23.4375 -27.015625 C 22.570312 -28.023438 21.457031 -28.53125 20.09375 -28.53125 C 18.320312 -28.53125 16.710938 -27.847656 15.265625 -26.484375 L 15.265625 -27.625 C 16.347656 -28.59375 17.613281 -29.359375 19.0625 -29.921875 C 20.507812 -30.484375 22.039062 -30.765625 23.65625 -30.765625 C 25.664062 -30.765625 27.441406 -30.332031 28.984375 -29.46875 C 30.535156 -28.601562 31.753906 -27.414062 32.640625 -25.90625 C 33.523438 -24.40625 33.96875 -22.707031 33.96875 -20.8125 L 33.96875 0 Z M 3.859375 0 L 3.859375 -28.890625 L 13.09375 -30.46875 L 13.09375 0 Z M 3.859375 0 "/></g></g></g><g fill="#0000ca" fill-opacity="1"><g transform="translate(80.206738, 57.229266)"><g><path d="M 22.75 0 L 22.75 -22.375 C 22.75 -24.707031 22.03125 -26.554688 20.59375 -27.921875 C 19.164062 -29.296875 17.207031 -29.984375 14.71875 -29.984375 C 12.90625 -29.984375 11.398438 -29.617188 10.203125 -28.890625 L 9.46875 -29.140625 C 11.519531 -30.222656 14.054688 -30.765625 17.078125 -30.765625 C 19.972656 -30.765625 22.546875 -30.269531 24.796875 -29.28125 C 27.046875 -28.300781 28.800781 -26.972656 30.0625 -25.296875 C 31.332031 -23.628906 31.96875 -21.734375 31.96875 -19.609375 L 31.96875 0 Z M 8.5625 -19.3125 C 7.28125 -19.3125 6.21875 -19.710938 5.375 -20.515625 C 4.53125 -21.316406 4.109375 -22.320312 4.109375 -23.53125 C 4.109375 -24.738281 4.53125 -25.742188 5.375 -26.546875 C 6.21875 -27.347656 7.28125 -27.75 8.5625 -27.75 C 9.726562 -27.75 10.703125 -27.347656 11.484375 -26.546875 C 12.273438 -25.742188 12.671875 -24.738281 12.671875 -23.53125 C 12.671875 -22.320312 12.273438 -21.316406 11.484375 -20.515625 C 10.703125 -19.710938 9.726562 -19.3125 8.5625 -19.3125 Z M 12.1875 0.609375 C 10.257812 0.609375 8.5 0.238281 6.90625 -0.5 C 5.320312 -1.25 4.066406 -2.265625 3.140625 -3.546875 C 2.210938 -4.835938 1.75 -6.289062 1.75 -7.90625 C 1.75 -9.59375 2.289062 -11.085938 3.375 -12.390625 C 4.457031 -13.703125 5.941406 -14.738281 7.828125 -15.5 C 9.722656 -16.269531 11.878906 -16.65625 14.296875 -16.65625 C 15.421875 -16.65625 16.523438 -16.570312 17.609375 -16.40625 C 18.703125 -16.25 19.691406 -16.03125 20.578125 -15.75 L 20.578125 -14.96875 C 20.171875 -15.125 19.722656 -15.234375 19.234375 -15.296875 C 18.753906 -15.359375 18.253906 -15.390625 17.734375 -15.390625 C 15.722656 -15.390625 14.132812 -14.785156 12.96875 -13.578125 C 11.800781 -12.367188 11.21875 -10.695312 11.21875 -8.5625 C 11.21875 -6.550781 11.707031 -4.921875 12.6875 -3.671875 C 13.675781 -2.429688 14.976562 -1.8125 16.59375 -1.8125 C 18.082031 -1.8125 19.410156 -2.210938 20.578125 -3.015625 L 20.578125 -2.109375 C 19.441406 -1.265625 18.140625 -0.597656 16.671875 -0.109375 C 15.210938 0.367188 13.71875 0.609375 12.1875 0.609375 Z M 12.1875 0.609375 "/></g></g></g><g fill="#0000ca" fill-opacity="1"><g transform="translate(115.558976, 57.229266)"><g><path d="M 7.234375 0.296875 C 5.671875 0.296875 4.351562 -0.222656 3.28125 -1.265625 C 2.21875 -2.304688 1.6875 -3.59375 1.6875 -5.125 C 1.6875 -6.65625 2.21875 -7.960938 3.28125 -9.046875 C 4.351562 -10.128906 5.671875 -10.671875 7.234375 -10.671875 C 8.765625 -10.671875 10.050781 -10.128906 11.09375 -9.046875 C 12.144531 -7.960938 12.671875 -6.65625 12.671875 -5.125 C 12.671875 -3.59375 12.144531 -2.304688 11.09375 -1.265625 C 10.050781 -0.222656 8.765625 0.296875 7.234375 0.296875 Z M 7.234375 0.296875 "/></g></g></g><g fill="#0000ca" fill-opacity="1"><g transform="translate(129.917053, 57.229266)"><g><path d="M 3.859375 0 L 3.859375 -42.46875 L 13.09375 -44.046875 L 13.09375 0 Z M 3.859375 0 "/></g></g></g><g fill="#0000ca" fill-opacity="1"><g transform="translate(146.869243, 57.229266)"><g><path d="M 22.75 0 L 22.75 -22.375 C 22.75 -24.707031 22.03125 -26.554688 20.59375 -27.921875 C 19.164062 -29.296875 17.207031 -29.984375 14.71875 -29.984375 C 12.90625 -29.984375 11.398438 -29.617188 10.203125 -28.890625 L 9.46875 -29.140625 C 11.519531 -30.222656 14.054688 -30.765625 17.078125 -30.765625 C 19.972656 -30.765625 22.546875 -30.269531 24.796875 -29.28125 C 27.046875 -28.300781 28.800781 -26.972656 30.0625 -25.296875 C 31.332031 -23.628906 31.96875 -21.734375 31.96875 -19.609375 L 31.96875 0 Z M 8.5625 -19.3125 C 7.28125 -19.3125 6.21875 -19.710938 5.375 -20.515625 C 4.53125 -21.316406 4.109375 -22.320312 4.109375 -23.53125 C 4.109375 -24.738281 4.53125 -25.742188 5.375 -26.546875 C 6.21875 -27.347656 7.28125 -27.75 8.5625 -27.75 C 9.726562 -27.75 10.703125 -27.347656 11.484375 -26.546875 C 12.273438 -25.742188 12.671875 -24.738281 12.671875 -23.53125 C 12.671875 -22.320312 12.273438 -21.316406 11.484375 -20.515625 C 10.703125 -19.710938 9.726562 -19.3125 8.5625 -19.3125 Z M 12.1875 0.609375 C 10.257812 0.609375 8.5 0.238281 6.90625 -0.5 C 5.320312 -1.25 4.066406 -2.265625 3.140625 -3.546875 C 2.210938 -4.835938 1.75 -6.289062 1.75 -7.90625 C 1.75 -9.59375 2.289062 -11.085938 3.375 -12.390625 C 4.457031 -13.703125 5.941406 -14.738281 7.828125 -15.5 C 9.722656 -16.269531 11.878906 -16.65625 14.296875 -16.65625 C 15.421875 -16.65625 16.523438 -16.570312 17.609375 -16.40625 C 18.703125 -16.25 19.691406 -16.03125 20.578125 -15.75 L 20.578125 -14.96875 C 20.171875 -15.125 19.722656 -15.234375 19.234375 -15.296875 C 18.753906 -15.359375 18.253906 -15.390625 17.734375 -15.390625 C 15.722656 -15.390625 14.132812 -14.785156 12.96875 -13.578125 C 11.800781 -12.367188 11.21875 -10.695312 11.21875 -8.5625 C 11.21875 -6.550781 11.707031 -4.921875 12.6875 -3.671875 C 13.675781 -2.429688 14.976562 -1.8125 16.59375 -1.8125 C 18.082031 -1.8125 19.410156 -2.210938 20.578125 -3.015625 L 20.578125 -2.109375 C 19.441406 -1.265625 18.140625 -0.597656 16.671875 -0.109375 C 15.210938 0.367188 13.71875 0.609375 12.1875 0.609375 Z M 12.1875 0.609375 "/></g></g></g><g fill="#0000ca" fill-opacity="1"><g transform="translate(182.221481, 57.229266)"><g><path d="M 23.890625 0 L 23.890625 -23.40625 C 23.890625 -24.851562 23.476562 -26.054688 22.65625 -27.015625 C 21.832031 -27.984375 20.773438 -28.46875 19.484375 -28.46875 C 17.953125 -28.46875 16.546875 -27.828125 15.265625 -26.546875 L 15.265625 -27.6875 C 16.304688 -28.65625 17.488281 -29.410156 18.8125 -29.953125 C 20.144531 -30.492188 21.554688 -30.765625 23.046875 -30.765625 C 24.929688 -30.765625 26.640625 -30.332031 28.171875 -29.46875 C 29.703125 -28.601562 30.910156 -27.425781 31.796875 -25.9375 C 32.679688 -24.445312 33.125 -22.738281 33.125 -20.8125 L 33.125 0 Z M 43.921875 0 L 43.921875 -23.40625 C 43.921875 -24.851562 43.507812 -26.054688 42.6875 -27.015625 C 41.863281 -27.984375 40.804688 -28.46875 39.515625 -28.46875 C 38.503906 -28.46875 37.554688 -28.1875 36.671875 -27.625 C 35.796875 -27.0625 35.015625 -26.316406 34.328125 -25.390625 L 34.328125 -26.671875 C 35.367188 -27.953125 36.664062 -28.953125 38.21875 -29.671875 C 39.769531 -30.398438 41.410156 -30.765625 43.140625 -30.765625 C 45.023438 -30.765625 46.722656 -30.332031 48.234375 -29.46875 C 49.742188 -28.601562 50.941406 -27.425781 51.828125 -25.9375 C 52.710938 -24.445312 53.15625 -22.738281 53.15625 -20.8125 L 53.15625 0 Z M 3.859375 0 L 3.859375 -28.890625 L 13.09375 -30.46875 L 13.09375 0 Z M 3.859375 0 "/></g></g></g><g fill="#0000ca" fill-opacity="1"><g transform="translate(238.74887, 57.229266)"><g><path d="M 3.859375 0 L 3.859375 -42.46875 L 13.09375 -44.046875 L 13.09375 0 Z M 22.5625 0.609375 C 19.820312 0.609375 17.390625 -0.238281 15.265625 -1.9375 L 15.265625 -2.953125 C 16.472656 -1.953125 17.859375 -1.453125 19.421875 -1.453125 C 21.671875 -1.453125 23.445312 -2.65625 24.75 -5.0625 C 26.0625 -7.476562 26.71875 -10.816406 26.71875 -15.078125 C 26.71875 -19.347656 26.0625 -22.6875 24.75 -25.09375 C 23.445312 -27.507812 21.671875 -28.71875 19.421875 -28.71875 C 17.929688 -28.71875 16.546875 -28.175781 15.265625 -27.09375 L 15.265625 -28.109375 C 17.359375 -29.878906 19.832031 -30.765625 22.6875 -30.765625 C 25.21875 -30.765625 27.5 -30.082031 29.53125 -28.71875 C 31.5625 -27.351562 33.179688 -25.484375 34.390625 -23.109375 C 35.597656 -20.734375 36.203125 -18.054688 36.203125 -15.078125 C 36.203125 -12.109375 35.597656 -9.4375 34.390625 -7.0625 C 33.179688 -4.6875 31.550781 -2.8125 29.5 -1.4375 C 27.445312 -0.0703125 25.132812 0.609375 22.5625 0.609375 Z M 22.5625 0.609375 "/></g></g></g><g fill="#0000ca" fill-opacity="1"><g transform="translate(276.936543, 57.229266)"><g><path d="M 21.953125 -0.484375 C 23.085938 -0.484375 24.144531 -0.601562 25.125 -0.84375 C 26.113281 -1.082031 26.988281 -1.460938 27.75 -1.984375 L 29.015625 -1.984375 C 27.804688 -1.179688 26.367188 -0.546875 24.703125 -0.078125 C 23.035156 0.378906 21.253906 0.609375 19.359375 0.609375 C 15.984375 0.609375 12.988281 -0.0703125 10.375 -1.4375 C 7.757812 -2.8125 5.71875 -4.691406 4.25 -7.078125 C 2.78125 -9.472656 2.046875 -12.160156 2.046875 -15.140625 C 2.046875 -18.035156 2.71875 -20.628906 4.0625 -22.921875 C 5.414062 -25.210938 7.238281 -27.050781 9.53125 -28.4375 C 11.820312 -29.832031 14.375 -30.609375 17.1875 -30.765625 L 17.1875 -30.046875 C 15.457031 -29.523438 14.097656 -28.078125 13.109375 -25.703125 C 12.128906 -23.328125 11.597656 -20.429688 11.515625 -17.015625 L 24.375 -17.015625 C 24.332031 -20.671875 23.867188 -23.625 22.984375 -25.875 C 22.097656 -28.132812 20.890625 -29.523438 19.359375 -30.046875 L 19.359375 -30.703125 C 22.054688 -30.546875 24.429688 -29.820312 26.484375 -28.53125 C 28.535156 -27.25 30.144531 -25.5625 31.3125 -23.46875 C 32.476562 -21.375 33.0625 -19.019531 33.0625 -16.40625 L 11.515625 -16.40625 L 11.515625 -16.171875 C 11.515625 -10.898438 12.429688 -6.96875 14.265625 -4.375 C 16.097656 -1.78125 18.660156 -0.484375 21.953125 -0.484375 Z M 28.46875 -11.890625 C 29.632812 -11.890625 30.617188 -11.472656 31.421875 -10.640625 C 32.234375 -9.816406 32.640625 -8.820312 32.640625 -7.65625 C 32.640625 -6.457031 32.222656 -5.441406 31.390625 -4.609375 C 30.566406 -3.785156 29.554688 -3.375 28.359375 -3.375 C 27.148438 -3.375 26.132812 -3.773438 25.3125 -4.578125 C 24.488281 -5.390625 24.078125 -6.414062 24.078125 -7.65625 C 24.078125 -8.820312 24.5 -9.816406 25.34375 -10.640625 C 26.1875 -11.472656 27.226562 -11.890625 28.46875 -11.890625 Z M 28.46875 -11.890625 "/></g></g></g><g fill="#0000ca" fill-opacity="1"><g transform="translate(311.987138, 57.229266)"><g><path d="M 21.421875 -30.15625 C 19.566406 -30.15625 17.90625 -29.53125 16.4375 -28.28125 C 14.96875 -27.039062 13.851562 -25.394531 13.09375 -23.34375 L 13.09375 0 L 3.859375 0 L 3.859375 -28.890625 L 13.09375 -30.46875 L 13.09375 -24.96875 C 13.894531 -26.738281 15.019531 -28.144531 16.46875 -29.1875 C 17.914062 -30.238281 19.566406 -30.765625 21.421875 -30.765625 C 22.503906 -30.765625 23.53125 -30.546875 24.5 -30.109375 L 23.53125 -29.796875 C 22.882812 -30.035156 22.179688 -30.15625 21.421875 -30.15625 Z M 24.125 -28.59375 C 25.289062 -28.59375 26.273438 -28.191406 27.078125 -27.390625 C 27.890625 -26.585938 28.296875 -25.582031 28.296875 -24.375 C 28.296875 -23.164062 27.890625 -22.160156 27.078125 -21.359375 C 26.273438 -20.554688 25.289062 -20.15625 24.125 -20.15625 C 22.882812 -20.15625 21.84375 -20.554688 21 -21.359375 C 20.15625 -22.160156 19.734375 -23.164062 19.734375 -24.375 C 19.734375 -25.582031 20.15625 -26.585938 21 -27.390625 C 21.84375 -28.191406 22.882812 -28.59375 24.125 -28.59375 Z M 24.125 -28.59375 "/></g></g></g><g fill="#0000ca" fill-opacity="1"><g transform="translate(340.703292, 57.229266)"><g><path d="M 22.265625 -4.40625 L 22.921875 -4.046875 C 22.554688 -2.710938 21.5625 -1.601562 19.9375 -0.71875 C 18.3125 0.164062 16.453125 0.609375 14.359375 0.609375 C 12.503906 0.609375 10.84375 0.253906 9.375 -0.453125 C 7.90625 -1.160156 6.75 -2.132812 5.90625 -3.375 C 5.0625 -4.625 4.640625 -6.015625 4.640625 -7.546875 L 4.640625 -29.5625 L 1.03125 -29.5625 L 1.03125 -30.15625 L 4.640625 -30.15625 L 4.640625 -36.734375 L 13.875 -38.734375 L 13.875 -5.734375 C 13.875 -4.398438 14.265625 -3.28125 15.046875 -2.375 C 15.835938 -1.476562 16.816406 -1.03125 17.984375 -1.03125 C 18.898438 -1.03125 19.769531 -1.359375 20.59375 -2.015625 C 21.425781 -2.679688 21.984375 -3.476562 22.265625 -4.40625 Z M 21.59375 -30.15625 L 21.59375 -29.5625 L 16.046875 -29.5625 L 16.046875 -30.15625 Z M 21.59375 -30.15625 "/></g></g></g></svg>